<svg xmlns="http://www.w3.org/2000/svg" xmlns:xlink="http://www.w3.org/1999/xlink" viewBox="0 0 555.41 351.12"><defs><style>.cls-1{fill:#d60812;}.cls-2{fill:#eb8175;}.cls-3{fill:#ffc856;}.cls-4{fill:#ebebff;}.cls-5{fill:#d6d7f4;}.cls-6{fill:#3d5ac4;}.cls-11,.cls-7{fill:#5571e9;}.cls-8{fill:#27429c;}.cls-9{fill:#312c76;}.cls-10{fill:#151247;}.cls-11{opacity:0.16;}.cls-12{clip-path:url(#clip-path);}.cls-13{fill:#fff;}.cls-14{fill:#14103d;}.cls-15{fill:#231c61;}.cls-16{fill:#e1ad9d;}.cls-17{fill:#c8c6f2;}.cls-18{fill:#d8d7fd;}.cls-19{fill:#091218;}.cls-20{fill:#1b2934;}.cls-21{fill:#e16c5f;}.cls-22{clip-path:url(#clip-path-2);}.cls-23,.cls-24,.cls-28,.cls-29,.cls-30,.cls-31,.cls-33,.cls-34,.cls-36,.cls-40{fill:none;}.cls-23,.cls-28{stroke:#f1ab00;}.cls-23,.cls-28,.cls-30,.cls-31,.cls-33,.cls-34{stroke-miterlimit:10;}.cls-23{stroke-width:0.45px;}.cls-24,.cls-29{stroke:#fff;}.cls-24,.cls-29,.cls-36,.cls-40{stroke-linecap:round;stroke-linejoin:round;}.cls-24{stroke-width:1.79px;}.cls-25{fill:#334fbe;}.cls-26{fill:#4265d1;}.cls-27{clip-path:url(#clip-path-3);}.cls-28{stroke-width:0.45px;}.cls-29{stroke-width:1.81px;}.cls-30,.cls-40{stroke:#3d5ac4;}.cls-30,.cls-31,.cls-36{stroke-width:4.23px;}.cls-31,.cls-36{stroke:#5571e9;}.cls-32{fill:#2f4dab;}.cls-33,.cls-34{stroke:#231c61;}.cls-33{stroke-width:3.45px;}.cls-34{stroke-width:1.78px;}.cls-35{fill:#373482;}.cls-37{clip-path:url(#clip-path-4);}.cls-38{fill:#fafafa;}.cls-39{clip-path:url(#clip-path-5);}.cls-40{stroke-width:1.82px;}</style><clipPath id="clip-path" transform="translate(-97.08 -73.38)"><rect id="_Rectangle_" data-name="&lt;Rectangle&gt;" class="cls-1" x="245.16" y="307.16" width="261.74" height="28.89"/></clipPath><clipPath id="clip-path-2" transform="translate(-97.08 -73.38)"><path id="_Masque_" data-name="&lt;Masque&gt;" class="cls-2" d="M261.49,174.42a8.61,8.61,0,1,0,11.45-4.16A8.61,8.61,0,0,0,261.49,174.42Z"/></clipPath><clipPath id="clip-path-3" transform="translate(-97.08 -73.38)"><path id="_Masque_2" data-name="&lt;Masque&gt;" class="cls-2" d="M425,303.41a8.72,8.72,0,1,0,12.27-1.22A8.71,8.71,0,0,0,425,303.41Z"/></clipPath><clipPath id="clip-path-4" transform="translate(-97.08 -73.38)"><path id="_Masque_3" data-name="&lt;Masque&gt;" class="cls-3" d="M282.18,418.77,298,378a2.28,2.28,0,0,1,4.25,0L318,418.77Z"/></clipPath><clipPath id="clip-path-5" transform="translate(-97.08 -73.38)"><path id="_Masque_4" data-name="&lt;Masque&gt;" class="cls-3" d="M511.13,418.89l15.77-40.75a2.28,2.28,0,0,1,4.25,0l15.76,40.75Z"/></clipPath></defs><title>2451223</title><g id="OBJECTS"><path class="cls-4" d="M646.94,323.94c5.95-19.28,7.34-39.8,3.08-59.52-6.68-30.86-28.17-68.21-90.2-84.33C442.38,149.58,401.6,60.34,291.75,88.76c0,0-59,10.71-86.86,108.26S67.67,296.23,105.31,381.17c6.15,13.88,22.72,29,46.5,43.33l445.5-1.5C628.1,386,637.68,354,646.94,323.94Z" transform="translate(-97.08 -73.38)"/><path class="cls-5" d="M541.82,254.18H525.11V235.89a19.36,19.36,0,0,0-15-18.84V194.36H504v22.26a19.35,19.35,0,0,0-17.6,19.27v18.83H469.76v21h-1.12v39l-30.22-.22V267.86H403.79V302h-24.3v33.16H350.13V423h97.56v0h20.95v0H591V312.26H541.78Z" transform="translate(-97.08 -73.38)"/><polygon class="cls-5" points="99.84 229.05 99.84 185.4 116.2 185.4 116.2 162.06 122.36 162.06 122.36 185.4 137.43 185.4 137.43 229.05 154.34 229.05 154.34 255.19 181.29 255.19 181.29 166.12 237.56 166.12 237.56 349.58 200.9 349.58 185.1 349.58 145.35 349.58 127 349.58 79.03 349.58 79.03 229.05 99.84 229.05"/><path class="cls-6" d="M504.33,422.52l-256.45.2a17.59,17.59,0,0,1-17.61-17.57h0l291.64-.23h0A17.59,17.59,0,0,1,504.33,422.52Z" transform="translate(-97.08 -73.38)"/><path class="cls-7" d="M504.33,416.47l-256.46.2a17.58,17.58,0,0,1-16.5-11.52h-1.1a17.59,17.59,0,0,0,17.61,17.57l256.45-.2a17.59,17.59,0,0,0,17.58-17.6h-1.1A17.57,17.57,0,0,1,504.33,416.47Z" transform="translate(-97.08 -73.38)"/><path class="cls-8" d="M392.66,410.91l-33.13,0a5.89,5.89,0,0,1-5.89-5.89h0l44.91,0h0A5.89,5.89,0,0,1,392.66,410.91Z" transform="translate(-97.08 -73.38)"/><path class="cls-7" d="M506.9,404.93l-261.62.21-.12-157.91a16.41,16.41,0,0,1,16.39-16.42l228.81-.18A16.42,16.42,0,0,1,506.78,247Z" transform="translate(-97.08 -73.38)"/><rect class="cls-9" x="161.76" y="170.98" width="234.37" height="147.03"/><rect class="cls-10" x="161.81" y="303.95" width="234.37" height="14.05"/><rect class="cls-10" x="161.7" y="170.98" width="234.37" height="6.98"/><polygon class="cls-11" points="239.87 171.01 161.76 249.24 161.82 318.1 161.99 318.1 308.9 170.96 239.87 171.01"/><polygon class="cls-11" points="192.08 318.08 226.69 318.05 373.6 170.91 338.99 170.94 192.08 318.08"/><polygon class="cls-11" points="368.62 317.94 396.16 290.35 396.12 238.15 313.44 317.97 368.62 317.94"/><rect id="_Rectangle_2" data-name="&lt;Rectangle&gt;" class="cls-1" x="148.08" y="233.78" width="261.74" height="28.89"/><g class="cls-12"><polygon class="cls-13" points="180.73 272.81 158.21 272.81 177.6 228.47 200.12 228.47 180.73 272.81"/><polygon class="cls-13" points="228.76 272.81 206.24 272.81 225.62 228.47 248.14 228.47 228.76 272.81"/><polygon class="cls-13" points="276.79 272.81 254.26 272.81 273.65 228.47 296.17 228.47 276.79 272.81"/><polygon class="cls-13" points="324.81 272.81 302.29 272.81 321.68 228.47 344.2 228.47 324.81 272.81"/><polygon class="cls-13" points="372.84 272.81 350.32 272.81 369.7 228.47 392.22 228.47 372.84 272.81"/></g><path class="cls-14" d="M224.14,257.28l-5.11.19-3-1a3.26,3.26,0,0,0-3.68,1.29l-.38.56,15,8.26,2.89-6.2Z" transform="translate(-97.08 -73.38)"/><path class="cls-14" d="M226.94,266.76l-15.08-8.33.53-.95a.38.38,0,0,1,.53-.15l14.73,8.13-.71,1.3" transform="translate(-97.08 -73.38)"/><polygon class="cls-2" points="132.74 187.04 136.69 180.2 132.74 173.14 127.06 183.89 132.74 187.04"/><path class="cls-14" d="M260.78,221.09s-21.31-6.12-23.37-.36S222.93,252,222.93,252l9.28,4.84,13.92-24.18L264.86,231Z" transform="translate(-97.08 -73.38)"/><path class="cls-14" d="M243.45,265l-4.17,2.66-3.08.62a3.26,3.26,0,0,0-2.6,2.91l-.06.67,17.09,0-.48-6.83Z" transform="translate(-97.08 -73.38)"/><path class="cls-14" d="M250.7,272l-17.22,0v-1.09a.39.39,0,0,1,.38-.39l16.84,0V272" transform="translate(-97.08 -73.38)"/><polygon class="cls-2" points="153.07 191.66 153.62 180.2 146.81 179.44 146.38 191.65 153.07 191.66"/><path class="cls-15" d="M263.66,220.11l-20.09.91s-2.89.16-2.69,6.93.17,34,.17,34l9.65.33,1.85-28.51,20.11-.25a10.82,10.82,0,0,0,9.86-6.37,7.88,7.88,0,0,0,.55-4.92Z" transform="translate(-97.08 -73.38)"/><path class="cls-16" d="M244.6,216.06c0,1.9-1.29,2.19-3.2,2.2s-3.7-.28-3.71-2.19a3.46,3.46,0,0,1,6.91,0Z" transform="translate(-97.08 -73.38)"/><path class="cls-16" d="M247,218h-4a1.89,1.89,0,0,1-1.9-1.89h0a1.91,1.91,0,0,1,1.89-1.9h4a1.9,1.9,0,0,1,1.9,1.89h0A1.91,1.91,0,0,1,247,218Z" transform="translate(-97.08 -73.38)"/><path class="cls-17" d="M246.87,218.41l-1.33-6.53,16.4-1.79,3.28-19.16c.33-1.74,2.85-3.9,4.6-3.57l-.51-.15a3.89,3.89,0,0,1,3,4.1l-3.19,22.93a3.21,3.21,0,0,1-2.39,2.52Z" transform="translate(-97.08 -73.38)"/><path class="cls-18" d="M279.63,187.78a3.32,3.32,0,0,1,1,.23l.17.06a8.11,8.11,0,0,1,4.85,7l-2.57,27.19c-17-.14-19.41-2.1-19.41-2.1L265,192.29c.21-2.62,1.41-5.09,4.4-5.34h0Z" transform="translate(-97.08 -73.38)"/><path class="cls-2" d="M260.92,218.2c.13,1.9-1.14,2.27-3,2.4s-3.72,0-3.85-1.93a3.45,3.45,0,0,1,6.89-.47Z" transform="translate(-97.08 -73.38)"/><path class="cls-2" d="M263.47,220l-4,.27a1.9,1.9,0,0,1-2-1.76h0a1.89,1.89,0,0,1,1.76-2l4-.27a1.9,1.9,0,0,1,2,1.76h0A1.9,1.9,0,0,1,263.47,220Z" transform="translate(-97.08 -73.38)"/><path class="cls-18" d="M263.34,220.39,261.58,214l17.87-2.88-1-16.62c.21-1.76,2.14-3.74,3.9-3.53h0a3.92,3.92,0,0,1,3.28,3.89l1.29,19.92a3.23,3.23,0,0,1-2.23,2.67Z" transform="translate(-97.08 -73.38)"/><path class="cls-19" d="M232.41,198.31l19.51,1.84a1.35,1.35,0,0,1,1.22,1.2l2.05,17.57a1.36,1.36,0,0,1-1.48,1.52l-19.83-1.87a1.36,1.36,0,0,1-1.23-1.22l-1.73-17.55A1.37,1.37,0,0,1,232.41,198.31Z" transform="translate(-97.08 -73.38)"/><path class="cls-20" d="M231.29,198.2l19.5,1.84a1.36,1.36,0,0,1,1.23,1.2l2,17.58a1.36,1.36,0,0,1-1.49,1.51l-19.83-1.86a1.38,1.38,0,0,1-1.23-1.23l-1.72-17.55A1.37,1.37,0,0,1,231.29,198.2Z" transform="translate(-97.08 -73.38)"/><path class="cls-19" d="M254.65,219.05,268,220.3a.74.74,0,0,1,.66.81h0a.74.74,0,0,1-.8.66l-14.13-1.28Z" transform="translate(-97.08 -73.38)"/><path class="cls-13" d="M242.47,208.86a2.13,2.13,0,1,1-1.93-2.32A2.14,2.14,0,0,1,242.47,208.86Z" transform="translate(-97.08 -73.38)"/><polygon class="cls-17" points="180.74 124.92 181.18 137.41 164.5 140.58 179.2 135.99 180.74 124.92"/><path class="cls-2" d="M269,186.12l1.12,3a2.9,2.9,0,0,0,2.54,1.9h0a2.93,2.93,0,0,0,2.9-4.07l-2-4.59Z" transform="translate(-97.08 -73.38)"/><path class="cls-21" d="M270,188.79s5.5-1,4.69-5.84-6-1.06-6-1.06l.5,4.79Z" transform="translate(-97.08 -73.38)"/><path id="_Masque_5" data-name="&lt;Masque&gt;" class="cls-2" d="M261.49,174.42a8.61,8.61,0,1,0,11.45-4.16A8.61,8.61,0,0,0,261.49,174.42Z" transform="translate(-97.08 -73.38)"/><g class="cls-22"><path class="cls-15" d="M272.49,179.76s-1.36,6.91,3.72,7.06,2.31-12.95,2.31-12.95l-8-8.08-12.29,3,1.22,7.95s2,1,12.52-.71Z" transform="translate(-97.08 -73.38)"/><polygon class="cls-15" points="170.4 100.98 174.43 106.88 177.91 103.04 170.4 100.98"/></g><path class="cls-2" d="M271.14,178.16a2.43,2.43,0,1,0,3.23-1.17A2.43,2.43,0,0,0,271.14,178.16Z" transform="translate(-97.08 -73.38)"/><path class="cls-3" d="M259.81,176.63s-1.86-6.79,2.55-11a8.84,8.84,0,0,1,12.79.61,13.56,13.56,0,0,1,2.84,8.62Z" transform="translate(-97.08 -73.38)"/><path class="cls-23" d="M260.75,176.51l-.05-4.24a2,2,0,0,1,1.9-2h0a2,2,0,0,1,2.08,1.79l.42,4.23" transform="translate(-97.08 -73.38)"/><line class="cls-24" x1="180.91" y1="101.47" x2="161.14" y2="103.37"/><polygon class="cls-2" points="360.93 330.58 365.36 334.87 360.31 337.59 355.98 333.35 360.93 330.58"/><path class="cls-14" d="M426.81,371.89l3,13.11a20.75,20.75,0,0,0,3.37,7.45L452.64,410l7.71-6.28L443.7,386.06l-6.09-23.25Z" transform="translate(-97.08 -73.38)"/><path class="cls-14" d="M457.24,410.85l-1.6,5.1-1.82,2.53a3.24,3.24,0,0,0,.07,3.88l.42.53,12.44-11.59-5-4.65Z" transform="translate(-97.08 -73.38)"/><polyline class="cls-14" points="369.79 337.95 357.25 349.64 356.25 348.56 368.79 336.88 369.79 337.95"/><polygon class="cls-2" points="318.3 338.55 316.63 344.11 310.92 342.57 312.59 337.12 318.3 338.55"/><path class="cls-15" d="M423,357.27l-16,54.06,10.09,2.52,9-27.1L437.19,369a26.52,26.52,0,0,0,1.58-2.47,10.53,10.53,0,0,0,1.27-5.17l0-3.51Z" transform="translate(-97.08 -73.38)"/><path class="cls-14" d="M408.33,415.42l-5,1.87-3.15.11a3.26,3.26,0,0,0-3.05,2.44l-.16.66,16.9,2.78.65-6.83Z" transform="translate(-97.08 -73.38)"/><polyline class="cls-14" points="316.8 350.02 299.76 347.22 300 345.75 317.04 348.56 316.8 350.02"/><polygon class="cls-25" points="303.63 228.97 297.17 239.06 300.26 241.28 306.95 230.61 303.63 228.97"/><path class="cls-26" d="M392.32,285.65s3,12.5,18.12,17.42a1.19,1.19,0,0,1,.83,1c.19,1.45.19,4.58-3.16,5.51a1.21,1.21,0,0,1-.94-.16c-2.32-1.45-13.7-8.1-24.75-6.18Z" transform="translate(-97.08 -73.38)"/><path class="cls-25" d="M392.32,285.65s-2.78,12.47-9.9,17.55C382.42,303.2,383.42,292.27,392.32,285.65Z" transform="translate(-97.08 -73.38)"/><path class="cls-2" d="M392.14,311.79a5.12,5.12,0,0,0,3.71,5.56,4.24,4.24,0,0,0,5-3.3,5.13,5.13,0,0,0-3.72-5.57A4.24,4.24,0,0,0,392.14,311.79Z" transform="translate(-97.08 -73.38)"/><polyline class="cls-2" points="307.2 245.14 302.72 240.46 299.8 244.06 307.2 249.49"/><path class="cls-17" d="M403.57,314.2l-4.74,7,13,11.85a6.65,6.65,0,0,0,2.43.24l17.1-2.22A4.89,4.89,0,0,0,436,326h0c-.13-2.69.39-6.59-2.31-6.47l-19.87,4.08Z" transform="translate(-97.08 -73.38)"/><path class="cls-18" d="M441.92,330.35a9.82,9.82,0,0,0-4.4-9.46c-1.43-.91-2.84-1.53-3.86-1.36-3.41.58-6.91,2.12-8.42,6.73-2.55,7.83-3.28,31-3.28,31l18.33.63Z" transform="translate(-97.08 -73.38)"/><polygon class="cls-17" points="338.08 257.55 343.59 277.81 344.7 260.62 338.08 257.55"/><path class="cls-2" d="M457.62,370.9a5.12,5.12,0,0,0,.29-6.68,4.24,4.24,0,0,0-6-.28,5.12,5.12,0,0,0-.29,6.68A4.24,4.24,0,0,0,457.62,370.9Z" transform="translate(-97.08 -73.38)"/><polyline class="cls-2" points="352.23 283.09 355.57 291.34 360.06 290.16 357.28 281.4"/><path class="cls-18" d="M449.52,362.84l9.18-2-6.23-21.29a6.59,6.59,0,0,0-1.1-2.18L440,323.12c-1.55-2.21-4.15-1.82-6.36-.27h0a4.87,4.87,0,0,0-1.21,6.8l11,13.23Z" transform="translate(-97.08 -73.38)"/><path class="cls-2" d="M429.37,316.75l.35,3.21a3,3,0,0,0,2,2.5h0a3,3,0,0,0,3.85-3.28l-.77-5Z" transform="translate(-97.08 -73.38)"/><path class="cls-21" d="M429.68,319.61s5.66-.19,6.07-5.1-5.61-2-5.61-2l-.7,4.82Z" transform="translate(-97.08 -73.38)"/><path id="_Masque_6" data-name="&lt;Masque&gt;" class="cls-2" d="M425,303.41a8.72,8.72,0,1,0,12.27-1.22A8.71,8.71,0,0,0,425,303.41Z" transform="translate(-97.08 -73.38)"/><g class="cls-27"><path class="cls-15" d="M434.4,311.39s-3,6.43,1.89,7.84,5.49-12.12,5.49-12.12l-5.86-9.92-12.79-.09-.79,8.09s1.66,1.5,12.45,2.43Z" transform="translate(-97.08 -73.38)"/><polygon class="cls-15" points="333.75 231.46 336.24 238.26 340.61 235.35 333.75 231.46"/></g><path class="cls-2" d="M433.47,309.48a2.47,2.47,0,1,0,3.47-.34A2.47,2.47,0,0,0,433.47,309.48Z" transform="translate(-97.08 -73.38)"/><path class="cls-3" d="M422.71,305.91s-.43-7.11,4.81-10.35a8.93,8.93,0,0,1,12.53,3.26c1.12,2.11,1.76,5.06,1,9.13Z" transform="translate(-97.08 -73.38)"/><path class="cls-28" d="M423.66,306l.83-4.21a2,2,0,0,1,2.3-1.6h0a2,2,0,0,1,1.69,2.21l-.47,4.28" transform="translate(-97.08 -73.38)"/><line class="cls-29" x1="343.98" y1="234.56" x2="324.02" y2="232.32"/><line class="cls-30" x1="465.84" y1="286.23" x2="445.18" y2="306.6"/><line class="cls-30" x1="465.84" y1="264.47" x2="445.18" y2="284.84"/><line class="cls-30" x1="465.84" y1="242.71" x2="445.18" y2="263.08"/><line class="cls-30" x1="465.84" y1="220.95" x2="445.18" y2="241.31"/><line class="cls-30" x1="465.84" y1="199.19" x2="445.18" y2="219.55"/><line class="cls-30" x1="465.84" y1="177.43" x2="445.18" y2="197.79"/><line class="cls-30" x1="465.84" y1="155.67" x2="445.18" y2="176.03"/><line class="cls-30" x1="465.84" y1="133.91" x2="445.18" y2="154.27"/><line class="cls-30" x1="465.84" y1="112.14" x2="445.18" y2="132.51"/><line class="cls-30" x1="465.84" y1="90.38" x2="445.18" y2="110.75"/><line class="cls-30" x1="465.84" y1="68.62" x2="445.18" y2="88.98"/><line class="cls-30" x1="445.18" y1="284.84" x2="465.84" y2="284.84"/><line class="cls-30" x1="445.18" y1="263.08" x2="465.84" y2="263.08"/><line class="cls-30" x1="445.18" y1="241.31" x2="465.84" y2="241.31"/><line class="cls-30" x1="445.18" y1="219.55" x2="465.84" y2="219.55"/><line class="cls-30" x1="445.18" y1="197.79" x2="465.84" y2="197.79"/><line class="cls-30" x1="445.18" y1="176.03" x2="465.84" y2="176.03"/><line class="cls-30" x1="445.18" y1="154.27" x2="465.84" y2="154.27"/><line class="cls-30" x1="445.18" y1="132.51" x2="465.84" y2="132.51"/><line class="cls-30" x1="445.18" y1="110.75" x2="465.84" y2="110.75"/><line class="cls-30" x1="445.18" y1="88.98" x2="465.84" y2="88.98"/><line class="cls-31" x1="445.18" y1="312.5" x2="445.18" y2="72.1"/><line class="cls-31" x1="465.84" y1="312.5" x2="465.84" y2="72.1"/><rect class="cls-15" x="434.53" y="306.6" width="41.14" height="42.74"/><rect class="cls-6" x="437.53" y="31.4" width="35.24" height="40.7" rx="6.87" ry="6.87"/><path class="cls-32" d="M440.74,41.21h13.84a5.2,5.2,0,0,1,5.2,5.2v8.63a5.2,5.2,0,0,1-5.2,5.2H440.74a0,0,0,0,1,0,0v-19A0,0,0,0,1,440.74,41.21Z"/><line class="cls-33" x1="308.9" y1="74.32" x2="325.42" y2="122.33"/><line class="cls-33" x1="297.4" y1="68.62" x2="265.18" y2="112.14"/><path class="cls-3" d="M404.11,163.36,437.4,206.9a10.92,10.92,0,0,1-2,15.31l-43.54,33.3a10.93,10.93,0,0,1-15.31-2l-33.3-43.55a10.91,10.91,0,0,1,2.05-15.3l43.54-33.3A10.92,10.92,0,0,1,404.11,163.36Z" transform="translate(-97.08 -73.38)"/><path class="cls-34" d="M367.88,177.05h44.85a8.93,8.93,0,0,1,8.93,8.93v44.85a8.94,8.94,0,0,1-8.94,8.94H367.88a8.93,8.93,0,0,1-8.93-8.93V186a8.94,8.94,0,0,1,8.94-8.94Z" transform="translate(364.77 571.68) rotate(-127.41)"/><path class="cls-15" d="M393.13,224.66c-.86,6.47-10.67,5.16-9.81-1.31S394,218.14,393.13,224.66Zm4.22-36.11-3.85,27.17-8.24-1.1c1.21-9.14,2.23-18,3.46-27.23Z" transform="translate(-97.08 -73.38)"/><circle class="cls-15" cx="304.18" cy="64.55" r="13.81"/><path class="cls-35" d="M411,137.94a9.77,9.77,0,1,1-9.77-9.77A9.77,9.77,0,0,1,411,137.94Z" transform="translate(-97.08 -73.38)"/><line class="cls-30" x1="358.36" y1="2.12" x2="358.36" y2="31.4"/><line class="cls-30" x1="332.1" y1="2.12" x2="332.1" y2="31.4"/><line class="cls-30" x1="384.53" y1="2.12" x2="384.53" y2="31.4"/><line class="cls-30" x1="413.61" y1="2.12" x2="413.61" y2="31.4"/><line class="cls-30" x1="440.74" y1="2.12" x2="440.74" y2="31.4"/><line class="cls-30" x1="468.86" y1="2.12" x2="468.86" y2="31.4"/><line class="cls-30" x1="496.49" y1="2.12" x2="496.49" y2="31.4"/><line class="cls-30" x1="330.73" y1="31.4" x2="358.36" y2="2.12"/><line class="cls-30" x1="358.36" y1="31.4" x2="385.98" y2="2.12"/><line class="cls-30" x1="385.98" y1="31.4" x2="413.61" y2="2.12"/><line class="cls-30" x1="413.61" y1="31.4" x2="441.23" y2="2.12"/><line class="cls-30" x1="441.23" y1="31.4" x2="468.86" y2="2.12"/><line class="cls-30" x1="468.86" y1="31.4" x2="496.49" y2="2.12"/><polygon class="cls-36" points="304.18 31.4 529.43 31.4 499.1 2.12 327.49 2.12 304.18 31.4"/><line class="cls-36" x1="304.18" y1="31.4" x2="304.18" y2="64.55"/><path id="_Masque_7" data-name="&lt;Masque&gt;" class="cls-3" d="M282.18,418.77,298,378a2.28,2.28,0,0,1,4.25,0L318,418.77Z" transform="translate(-97.08 -73.38)"/><g class="cls-37"><rect class="cls-38" x="188.75" y="313.39" width="27.99" height="8.65"/><rect class="cls-38" x="187.22" y="329.74" width="31.66" height="8.65"/></g><rect class="cls-3" x="182.22" y="345.38" width="41.73" height="3.43"/><path id="_Masque_8" data-name="&lt;Masque&gt;" class="cls-3" d="M511.13,418.89l15.77-40.75a2.28,2.28,0,0,1,4.25,0l15.76,40.75Z" transform="translate(-97.08 -73.38)"/><g class="cls-39"><rect class="cls-38" x="417.7" y="313.52" width="27.99" height="8.65"/><rect class="cls-38" x="416.17" y="329.86" width="31.66" height="8.65"/></g><rect class="cls-3" x="411.17" y="345.51" width="41.73" height="3.43"/><circle class="cls-7" cx="196.54" cy="350.66" r="32.74" transform="translate(-276.32 420.02) rotate(-81.53)"/><line class="cls-40" x1="99.46" y1="265.6" x2="99.46" y2="348.82"/><line class="cls-40" x1="86.73" y1="267.3" x2="99.46" y2="281.58"/><path class="cls-40" d="M207.84,354.17c-.92.92-11.3,11.73-11.3,11.73" transform="translate(-97.08 -73.38)"/><line class="cls-40" x1="0.91" y1="349.62" x2="550.14" y2="349.62"/></g></svg>